<mxfile host="app.diagrams.net" modified="2022-08-06T02:15:37.679Z" agent="5.0 (X11; Linux x86_64) AppleWebKit/537.36 (KHTML, like Gecko) Chrome/103.0.0.0 Safari/537.36" etag="vqpGvZbog9cSruyMEQoV" version="20.2.3" type="github">
  <diagram id="1yao0GgSqyUsV5PnJYC8" name="Página-1">
    <mxGraphModel dx="1422" dy="723" grid="1" gridSize="10" guides="1" tooltips="1" connect="1" arrows="1" fold="1" page="1" pageScale="1" pageWidth="827" pageHeight="1169" math="0" shadow="0">
      <root>
        <mxCell id="0" />
        <mxCell id="1" parent="0" />
        <mxCell id="0wLoALtJLJQvzfuoH1Bg-1" value="Actor" style="shape=umlActor;verticalLabelPosition=bottom;verticalAlign=top;html=1;outlineConnect=0;" vertex="1" parent="1">
          <mxGeometry x="50" y="280" width="80" height="150" as="geometry" />
        </mxCell>
        <mxCell id="0wLoALtJLJQvzfuoH1Bg-2" value="Advogado" style="text;html=1;align=center;verticalAlign=middle;resizable=0;points=[];autosize=1;strokeColor=none;fillColor=none;" vertex="1" parent="1">
          <mxGeometry x="50" y="450" width="80" height="30" as="geometry" />
        </mxCell>
        <mxCell id="0wLoALtJLJQvzfuoH1Bg-4" value="" style="rounded=0;whiteSpace=wrap;html=1;fillColor=#ffe6cc;strokeColor=#d79b00;" vertex="1" parent="1">
          <mxGeometry x="350" y="10" width="170" height="660" as="geometry" />
        </mxCell>
        <mxCell id="0wLoALtJLJQvzfuoH1Bg-5" value="Cadastrar-se" style="ellipse;whiteSpace=wrap;html=1;" vertex="1" parent="1">
          <mxGeometry x="375" y="30" width="120" height="80" as="geometry" />
        </mxCell>
        <mxCell id="0wLoALtJLJQvzfuoH1Bg-6" value="Fazer Login" style="ellipse;whiteSpace=wrap;html=1;" vertex="1" parent="1">
          <mxGeometry x="375" y="120" width="120" height="80" as="geometry" />
        </mxCell>
        <mxCell id="0wLoALtJLJQvzfuoH1Bg-7" value="Solicitar protocolo" style="ellipse;whiteSpace=wrap;html=1;" vertex="1" parent="1">
          <mxGeometry x="370" y="300" width="120" height="80" as="geometry" />
        </mxCell>
        <mxCell id="0wLoALtJLJQvzfuoH1Bg-8" value="Cadastrar Cartão&lt;br&gt;de crédito" style="ellipse;whiteSpace=wrap;html=1;" vertex="1" parent="1">
          <mxGeometry x="370" y="210" width="120" height="80" as="geometry" />
        </mxCell>
        <mxCell id="0wLoALtJLJQvzfuoH1Bg-9" value="Cancelar um protocolo" style="ellipse;whiteSpace=wrap;html=1;" vertex="1" parent="1">
          <mxGeometry x="375" y="390" width="120" height="80" as="geometry" />
        </mxCell>
        <mxCell id="0wLoALtJLJQvzfuoH1Bg-10" value="Modificar um protocolo" style="ellipse;whiteSpace=wrap;html=1;" vertex="1" parent="1">
          <mxGeometry x="375" y="480" width="120" height="80" as="geometry" />
        </mxCell>
        <mxCell id="0wLoALtJLJQvzfuoH1Bg-11" value="Listar protocolos" style="ellipse;whiteSpace=wrap;html=1;" vertex="1" parent="1">
          <mxGeometry x="375" y="570" width="120" height="80" as="geometry" />
        </mxCell>
        <mxCell id="0wLoALtJLJQvzfuoH1Bg-14" value="" style="endArrow=classic;html=1;rounded=0;" edge="1" parent="1" target="0wLoALtJLJQvzfuoH1Bg-5">
          <mxGeometry width="50" height="50" relative="1" as="geometry">
            <mxPoint x="130" y="330" as="sourcePoint" />
            <mxPoint x="190" y="225" as="targetPoint" />
          </mxGeometry>
        </mxCell>
        <mxCell id="0wLoALtJLJQvzfuoH1Bg-15" value="" style="endArrow=classic;html=1;rounded=0;" edge="1" parent="1" target="0wLoALtJLJQvzfuoH1Bg-7">
          <mxGeometry width="50" height="50" relative="1" as="geometry">
            <mxPoint x="130" y="330" as="sourcePoint" />
            <mxPoint x="200" y="235" as="targetPoint" />
          </mxGeometry>
        </mxCell>
        <mxCell id="0wLoALtJLJQvzfuoH1Bg-16" value="" style="endArrow=classic;html=1;rounded=0;entryX=0;entryY=0.5;entryDx=0;entryDy=0;" edge="1" parent="1" target="0wLoALtJLJQvzfuoH1Bg-9">
          <mxGeometry width="50" height="50" relative="1" as="geometry">
            <mxPoint x="130" y="330" as="sourcePoint" />
            <mxPoint x="210" y="245" as="targetPoint" />
          </mxGeometry>
        </mxCell>
        <mxCell id="0wLoALtJLJQvzfuoH1Bg-17" value="" style="endArrow=classic;html=1;rounded=0;entryX=0.017;entryY=0.613;entryDx=0;entryDy=0;entryPerimeter=0;exitX=1;exitY=0.3333333333333333;exitDx=0;exitDy=0;exitPerimeter=0;" edge="1" parent="1" source="0wLoALtJLJQvzfuoH1Bg-1" target="0wLoALtJLJQvzfuoH1Bg-10">
          <mxGeometry width="50" height="50" relative="1" as="geometry">
            <mxPoint x="170" y="305" as="sourcePoint" />
            <mxPoint x="220" y="255" as="targetPoint" />
          </mxGeometry>
        </mxCell>
        <mxCell id="0wLoALtJLJQvzfuoH1Bg-18" value="" style="endArrow=classic;html=1;rounded=0;exitX=1;exitY=0.3333333333333333;exitDx=0;exitDy=0;exitPerimeter=0;entryX=0;entryY=0.5;entryDx=0;entryDy=0;" edge="1" parent="1" source="0wLoALtJLJQvzfuoH1Bg-1" target="0wLoALtJLJQvzfuoH1Bg-11">
          <mxGeometry width="50" height="50" relative="1" as="geometry">
            <mxPoint x="180" y="315" as="sourcePoint" />
            <mxPoint x="230" y="265" as="targetPoint" />
          </mxGeometry>
        </mxCell>
        <mxCell id="0wLoALtJLJQvzfuoH1Bg-19" value="" style="endArrow=classic;html=1;rounded=0;entryX=0;entryY=1;entryDx=0;entryDy=0;" edge="1" parent="1" target="0wLoALtJLJQvzfuoH1Bg-6">
          <mxGeometry width="50" height="50" relative="1" as="geometry">
            <mxPoint x="130" y="330" as="sourcePoint" />
            <mxPoint x="200" y="235" as="targetPoint" />
          </mxGeometry>
        </mxCell>
        <mxCell id="0wLoALtJLJQvzfuoH1Bg-20" value="" style="endArrow=classic;html=1;rounded=0;" edge="1" parent="1" target="0wLoALtJLJQvzfuoH1Bg-8">
          <mxGeometry width="50" height="50" relative="1" as="geometry">
            <mxPoint x="130" y="330" as="sourcePoint" />
            <mxPoint x="210" y="245" as="targetPoint" />
          </mxGeometry>
        </mxCell>
      </root>
    </mxGraphModel>
  </diagram>
</mxfile>
